<svg width="12" height="11" viewBox="0 0 12 11" fill="none" xmlns="http://www.w3.org/2000/svg">
<path d="M10.5938 0.859375H10.0312V0H9.09375V0.859375H2.90625V0H1.96875V0.859375H1.40625C0.630844 0.859375 0 1.43765 0 2.14844V9.71094C0 10.4217 0.630844 11 1.40625 11H10.5938C11.3692 11 12 10.4217 12 9.71094V2.14844C12 1.43765 11.3692 0.859375 10.5938 0.859375ZM11.0625 9.71094C11.0625 9.94787 10.8522 10.1406 10.5938 10.1406H1.40625C1.14778 10.1406 0.9375 9.94787 0.9375 9.71094V4.03906H11.0625V9.71094ZM11.0625 3.17969H0.9375V2.14844C0.9375 1.91151 1.14778 1.71875 1.40625 1.71875H1.96875V2.57812H2.90625V1.71875H9.09375V2.57812H10.0312V1.71875H10.5938C10.8522 1.71875 11.0625 1.91151 11.0625 2.14844V3.17969Z" fill="black"/>
<path d="M2.71875 4.77197H1.78125V5.63135H2.71875V4.77197Z" fill="black"/>
<path d="M4.59375 4.77197H3.65625V5.63135H4.59375V4.77197Z" fill="black"/>
<path d="M6.39209 4.83057H5.45459V5.68994H6.39209V4.83057Z" fill="black"/>
<path d="M8.34375 4.77197H7.40625V5.63135H8.34375V4.77197Z" fill="black"/>
<path d="M10.2188 4.77197H9.28125V5.63135H10.2188V4.77197Z" fill="black"/>
<path d="M2.71875 6.49072H1.78125V7.3501H2.71875V6.49072Z" fill="black"/>
<path d="M4.59375 6.49072H3.65625V7.3501H4.59375V6.49072Z" fill="black"/>
<path d="M6.46875 6.49072H5.53125V7.3501H6.46875V6.49072Z" fill="black"/>
<path d="M8.34375 6.49072H7.40625V7.3501H8.34375V6.49072Z" fill="black"/>
<path d="M2.71875 8.20947H1.78125V9.06885H2.71875V8.20947Z" fill="black"/>
<path d="M4.59375 8.20947H3.65625V9.06885H4.59375V8.20947Z" fill="black"/>
<path d="M6.46875 8.20947H5.53125V9.06885H6.46875V8.20947Z" fill="black"/>
<path d="M8.34375 8.20947H7.40625V9.06885H8.34375V8.20947Z" fill="black"/>
<path d="M10.2188 6.49072H9.28125V7.3501H10.2188V6.49072Z" fill="black"/>
</svg>
