<svg width="16" height="15" viewBox="0 0 16 15" fill="none" xmlns="http://www.w3.org/2000/svg">
<g clip-path="url(#clip0)">
<path d="M13.3886 1.27946H12.6777V0.193359H11.4929V1.27946H3.67299V0.193359H2.48815V1.27946H1.77725C0.797276 1.27946 0 2.01029 0 2.90861V12.4663C0 13.3646 0.797276 14.0954 1.77725 14.0954H13.3886C14.3686 14.0954 15.1659 13.3646 15.1659 12.4663V2.90861C15.1659 2.01029 14.3686 1.27946 13.3886 1.27946ZM13.9811 12.4663C13.9811 12.7657 13.7153 13.0093 13.3886 13.0093H1.77725C1.45059 13.0093 1.18484 12.7657 1.18484 12.4663V5.29803H13.9811V12.4663ZM13.9811 4.21193H1.18484V2.90861C1.18484 2.60917 1.45059 2.36556 1.77725 2.36556H2.48815V3.45166H3.67299V2.36556H11.4929V3.45166H12.6777V2.36556H13.3886C13.7153 2.36556 13.9811 2.60917 13.9811 2.90861V4.21193Z" fill="#ACACAC"/>
<path d="M3.43581 6.22412H2.25098V7.31022H3.43581V6.22412Z" fill="#ACACAC"/>
<path d="M5.80593 6.22412H4.62109V7.31022H5.80593V6.22412Z" fill="#ACACAC"/>
<path d="M8.07888 6.29822H6.89404V7.38432H8.07888V6.29822Z" fill="#ACACAC"/>
<path d="M10.5452 6.22412H9.36035V7.31022H10.5452V6.22412Z" fill="#ACACAC"/>
<path d="M12.9148 6.22412H11.73V7.31022H12.9148V6.22412Z" fill="#ACACAC"/>
<path d="M3.43581 8.39636H2.25098V9.48246H3.43581V8.39636Z" fill="#ACACAC"/>
<path d="M5.80593 8.39636H4.62109V9.48246H5.80593V8.39636Z" fill="#ACACAC"/>
<path d="M8.17556 8.39636H6.99072V9.48246H8.17556V8.39636Z" fill="#ACACAC"/>
<path d="M10.5452 8.39636H9.36035V9.48246H10.5452V8.39636Z" fill="#ACACAC"/>
<path d="M3.43581 10.5686H2.25098V11.6547H3.43581V10.5686Z" fill="#ACACAC"/>
<path d="M5.80593 10.5686H4.62109V11.6547H5.80593V10.5686Z" fill="#ACACAC"/>
<path d="M8.17556 10.5686H6.99072V11.6547H8.17556V10.5686Z" fill="#ACACAC"/>
<path d="M10.5452 10.5686H9.36035V11.6547H10.5452V10.5686Z" fill="#ACACAC"/>
<path d="M12.9148 8.39636H11.73V9.48246H12.9148V8.39636Z" fill="#ACACAC"/>
</g>
<defs>
<clipPath id="clip0">
<rect width="15.1659" height="13.9021" fill="white" transform="translate(0 0.193359)"/>
</clipPath>
</defs>
</svg>
