<svg width="15" height="15" viewBox="0 0 15 15" fill="none" xmlns="http://www.w3.org/2000/svg">
<g clip-path="url(#clip0)">
<path d="M14.2314 6.98621C14.1073 6.84779 11.1226 3.59229 7.38415 3.59229C3.64575 3.59229 0.661037 6.84779 0.536923 6.98621C0.3985 7.14092 0.3985 7.37482 0.536923 7.52953C0.661037 7.66795 3.6458 10.9235 7.38415 10.9235C11.1225 10.9235 14.1073 7.66795 14.2314 7.52953C14.3698 7.37482 14.3698 7.14092 14.2314 6.98621ZM7.38415 10.1089C5.81227 10.1089 4.53314 8.82975 4.53314 7.25787C4.53314 5.68599 5.81227 4.40686 7.38415 4.40686C8.95604 4.40686 10.2352 5.68599 10.2352 7.25787C10.2352 8.82975 8.95604 10.1089 7.38415 10.1089Z" fill="#ACACAC"/>
<path d="M7.22107 6.4433C7.22107 6.03357 7.42447 5.67312 7.7339 5.45142C7.45623 5.30927 7.14653 5.22144 6.81378 5.22144C5.69094 5.22144 4.77734 6.13503 4.77734 7.25787C4.77734 8.38071 5.69094 9.29431 6.81378 9.29431C7.81907 9.29431 8.65113 8.56027 8.81551 7.60113C7.99535 7.86519 7.22107 7.24489 7.22107 6.4433Z" fill="#ACACAC"/>
</g>
<defs>
<clipPath id="clip0">
<rect width="13.9021" height="13.9021" fill="white" transform="translate(0.433594 0.306641)"/>
</clipPath>
</defs>
</svg>
