<svg width="11" height="11" viewBox="0 0 11 11" fill="none" xmlns="http://www.w3.org/2000/svg">
<g clip-path="url(#clip0)">
<path d="M10.9179 5.28505C10.8197 5.17552 8.45802 2.59961 5.50001 2.59961C2.542 2.59961 0.180351 5.17552 0.0821455 5.28505C-0.0273818 5.40747 -0.0273818 5.59253 0.0821455 5.71495C0.180351 5.82448 2.54204 8.40039 5.50001 8.40039C8.45798 8.40039 10.8197 5.82448 10.9179 5.71495C11.0274 5.59253 11.0274 5.40747 10.9179 5.28505ZM5.50001 7.75586C4.25626 7.75586 3.24415 6.74375 3.24415 5.5C3.24415 4.25625 4.25626 3.24414 5.50001 3.24414C6.74376 3.24414 7.75587 4.25625 7.75587 5.5C7.75587 6.74375 6.74376 7.75586 5.50001 7.75586Z" fill="black"/>
<path d="M5.37109 4.85547C5.37109 4.53127 5.53203 4.24606 5.77687 4.07064C5.55717 3.95817 5.31212 3.88867 5.04883 3.88867C4.16038 3.88867 3.4375 4.61156 3.4375 5.5C3.4375 6.38844 4.16038 7.11133 5.04883 7.11133C5.84427 7.11133 6.50263 6.53052 6.6327 5.77161C5.98374 5.98054 5.37109 5.48973 5.37109 4.85547Z" fill="black"/>
</g>
<defs>
<clipPath id="clip0">
<rect width="11" height="11" fill="white"/>
</clipPath>
</defs>
</svg>
