<svg width="28" height="27" viewBox="0 0 28 27" fill="none" xmlns="http://www.w3.org/2000/svg">
<path d="M16.2573 26.8242C16.1407 26.8426 16.0236 26.8594 15.9061 26.8749C16.0236 26.8594 16.1407 26.8426 16.2573 26.8242Z" fill="white"/>
<path d="M16.5374 26.7782C16.4817 26.7881 16.4259 26.7971 16.3702 26.8064C16.4259 26.7971 16.4817 26.7881 16.5374 26.7782Z" fill="white"/>
<path d="M15.5934 26.9125C15.4569 26.9273 15.3195 26.9405 15.1818 26.9516C15.3195 26.9405 15.4569 26.9273 15.5934 26.9125Z" fill="white"/>
<path d="M15.8624 26.8807C15.7968 26.8895 15.7308 26.8976 15.665 26.9053C15.7308 26.8976 15.7968 26.8895 15.8624 26.8807Z" fill="white"/>
<path d="M16.9186 26.7052C16.8694 26.7153 16.8201 26.7254 16.7708 26.7351C16.8201 26.7254 16.8694 26.7153 16.9186 26.7052Z" fill="white"/>
<path d="M17.8644 26.4786C17.8246 26.4896 17.7849 26.4999 17.7452 26.5106C17.7849 26.4999 17.8246 26.4896 17.8644 26.4786Z" fill="white"/>
<path d="M17.5784 26.5541C17.5353 26.565 17.4919 26.5761 17.4485 26.5866C17.4919 26.5761 17.5353 26.5652 17.5784 26.5541Z" fill="white"/>
<path d="M17.2041 26.6443C17.1584 26.6546 17.1122 26.6643 17.0661 26.6742C17.1122 26.6643 17.1584 26.6546 17.2041 26.6443Z" fill="white"/>
<path d="M15.1772 26.952C15.1035 26.9582 15.0298 26.9638 14.9559 26.9687C15.0298 26.9638 15.1035 26.9582 15.1772 26.952Z" fill="white"/>
<path d="M28 13.5C28 6.0453 21.7308 0 14 0C6.2692 0 0 6.0453 0 13.5C0 20.9547 6.2692 27 14 27C14.0822 27 14.1641 26.9984 14.2461 26.9969V16.4877H11.2383V13.1076H14.2461V10.6202C14.2461 7.73547 16.0724 6.16539 18.7409 6.16539C20.0188 6.16539 21.1173 6.25726 21.4375 6.29826V9.31318H19.5974C18.1456 9.31318 17.8644 9.97854 17.8644 10.9547V13.1076H21.3358L20.8834 16.4877H17.8644V26.4784C23.7162 24.8608 28 19.6621 28 13.5Z" fill="white"/>
<path d="M14.925 26.97C14.7793 26.9794 14.633 26.9868 14.4862 26.9918C14.633 26.9868 14.7793 26.9794 14.925 26.97Z" fill="white"/>
<path d="M14.4787 26.9913C14.4014 26.9939 14.3238 26.9958 14.2463 26.9971C14.3238 26.9958 14.4014 26.9939 14.4787 26.9913Z" fill="white"/>
</svg>
