<svg width="15" height="15" viewBox="0 0 15 15" fill="none" xmlns="http://www.w3.org/2000/svg">
<g clip-path="url(#clip0)">
<path d="M12.6259 2.62375C12.6259 3.6635 11.7831 4.50639 10.7434 4.50639C9.70363 4.50639 8.86084 3.6635 8.86084 2.62375C8.86084 1.5841 9.70363 0.741211 10.7434 0.741211C11.7831 0.741211 12.6259 1.5841 12.6259 2.62375Z" fill="#ACACAC"/>
<path d="M10.7437 4.94082C9.46587 4.94082 8.42676 3.9016 8.42676 2.62374C8.42676 1.34598 9.46587 0.306763 10.7437 0.306763C12.0216 0.306763 13.0607 1.34598 13.0607 2.62374C13.0607 3.9016 12.0216 4.94082 10.7437 4.94082ZM10.7437 1.17564C9.94496 1.17564 9.29564 1.8256 9.29564 2.62374C9.29564 3.42198 9.94496 4.07194 10.7437 4.07194C11.5425 4.07194 12.1918 3.42198 12.1918 2.62374C12.1918 1.8256 11.5425 1.17564 10.7437 1.17564Z" fill="#ACACAC"/>
<path d="M12.6259 11.8922C12.6259 12.9318 11.7831 13.7747 10.7434 13.7747C9.70363 13.7747 8.86084 12.9318 8.86084 11.8922C8.86084 10.8524 9.70363 10.0095 10.7434 10.0095C11.7831 10.0095 12.6259 10.8524 12.6259 11.8922Z" fill="#ACACAC"/>
<path d="M10.7437 14.2091C9.46587 14.2091 8.42676 13.1699 8.42676 11.8922C8.42676 10.6143 9.46587 9.57507 10.7437 9.57507C12.0216 9.57507 13.0607 10.6143 13.0607 11.8922C13.0607 13.1699 12.0216 14.2091 10.7437 14.2091ZM10.7437 10.444C9.94496 10.444 9.29564 11.0939 9.29564 11.8922C9.29564 12.6903 9.94496 13.3403 10.7437 13.3403C11.5425 13.3403 12.1918 12.6903 12.1918 11.8922C12.1918 11.0939 11.5425 10.444 10.7437 10.444Z" fill="#ACACAC"/>
<path d="M4.51762 7.25754C4.51762 8.29728 3.67473 9.14007 2.63498 9.14007C1.59533 9.14007 0.752441 8.29728 0.752441 7.25754C0.752441 6.21779 1.59533 5.375 2.63498 5.375C3.67473 5.375 4.51762 6.21779 4.51762 7.25754Z" fill="#ACACAC"/>
<path d="M2.63485 9.5745C1.35709 9.5745 0.317871 8.53539 0.317871 7.25753C0.317871 5.97966 1.35709 4.94055 2.63485 4.94055C3.91271 4.94055 4.95193 5.97966 4.95193 7.25753C4.95193 8.53539 3.91271 9.5745 2.63485 9.5745ZM2.63485 5.80943C1.83608 5.80943 1.18675 6.45929 1.18675 7.25753C1.18675 8.05577 1.83608 8.70562 2.63485 8.70562C3.43372 8.70562 4.08305 8.05577 4.08305 7.25753C4.08305 6.45929 3.43372 5.80943 2.63485 5.80943Z" fill="#ACACAC"/>
<path d="M4.00317 6.97959C3.80154 6.97959 3.60575 6.87469 3.49915 6.68707C3.34101 6.4096 3.43838 6.05567 3.71584 5.89689L9.09065 2.83269C9.36812 2.67338 9.72206 2.77075 9.88083 3.04927C10.039 3.32674 9.94161 3.68067 9.66414 3.83945L4.28923 6.90365C4.19886 6.9552 4.10043 6.97959 4.00317 6.97959Z" fill="#ACACAC"/>
<path d="M9.37683 11.7589C9.27947 11.7589 9.18104 11.7345 9.09067 11.683L3.71576 8.61876C3.4383 8.46062 3.34104 8.10668 3.49918 7.82858C3.65668 7.55058 4.01115 7.45268 4.28925 7.61199L9.66416 10.6762C9.94162 10.8343 10.0389 11.1883 9.88074 11.4664C9.77362 11.654 9.57782 11.7589 9.37683 11.7589Z" fill="#ACACAC"/>
</g>
<defs>
<clipPath id="clip0">
<rect width="13.9021" height="13.9021" fill="white" transform="translate(0.318359 0.306641)"/>
</clipPath>
</defs>
</svg>
