<svg width="30" height="40" viewBox="0 0 30 40" fill="none" xmlns="http://www.w3.org/2000/svg">
<path d="M16.1536 18.4615H13.8459V31.1539H16.1536V18.4615Z" fill="#FF0110"/>
<path d="M20.7698 18.4615H18.4621V31.1539H20.7698V18.4615Z" fill="#FF0110"/>
<path d="M11.5391 18.4615H9.23137V31.1539H11.5391V18.4615Z" fill="#FF0110"/>
<path d="M-1.11759e-06 4.61538H9.23077V3.46154C9.23077 1.55285 10.7835 0 12.6923 0H17.3077C19.2165 0 20.7692 1.55285 20.7692 3.46154V4.61538H30V11.5385H27.5963L25.4745 35.9418C25.3828 37.7885 23.8696 39.2308 22.0172 39.2308H7.98285C6.13046 39.2308 4.61723 37.7885 4.52562 35.9418L2.40369 11.5385H-1.11759e-06V4.61538ZM18.4615 3.46154C18.4615 2.82531 17.9439 2.30769 17.3077 2.30769H12.6923C12.056 2.30769 11.5385 2.82531 11.5385 3.46154V4.61538H18.4615V3.46154ZM27.6923 6.92308H2.30769V9.23077H27.6923V6.92308ZM6.82992 35.8172C6.85577 36.4373 7.36215 36.9231 7.98277 36.9231H22.0172C22.6378 36.9231 23.1442 36.4374 23.1701 35.8172C25.4276 9.83977 25.2732 11.616 25.28 11.5385H4.72C4.72615 11.6081 4.58246 9.95623 6.82992 35.8172Z" fill="#FF0110"/>
</svg>
