<svg width="80" height="72" viewBox="0 0 80 72" fill="none" xmlns="http://www.w3.org/2000/svg">
<circle cx="48.5" cy="31.5" r="31.5" fill="#1A5BC5" fill-opacity="0.21"/>
<circle cx="35" cy="37" r="35" fill="#1A5BC5"/>
<path d="M43.3672 27.7903V30.6015H46.1785C45.806 29.2381 44.7306 28.1626 43.3672 27.7903Z" fill="white"/>
<path d="M49.8359 21.0391H20.1641C18.4194 21.0391 17 22.4585 17 24.2031V43.0469C17 44.7915 18.4194 46.2109 20.1641 46.2109H49.8359C51.5806 46.2109 53 44.7915 53 43.0469V24.2031C53 22.4585 51.5806 21.0391 49.8359 21.0391ZM23.2937 36.9719C22.5804 37.5348 21.5703 37.0362 21.5703 36.1562C21.5703 35.5514 22.0888 35.0477 22.7291 35.1064C23.66 35.2049 24.0189 36.3604 23.2937 36.9719ZM23.6741 31.7596C23.6287 32.3151 23.1104 32.7653 22.5209 32.7053C21.962 32.6587 21.5146 32.1394 21.5759 31.5528C21.6223 30.9799 22.1761 30.4993 22.831 30.622C23.3856 30.7371 23.7276 31.243 23.6741 31.7596ZM23.6748 27.2602C23.5797 28.1776 22.4281 28.5598 21.8094 27.8249C21.4216 27.3343 21.5314 26.6879 21.9563 26.3406C22.689 25.7435 23.7693 26.3391 23.6748 27.2602ZM28.8125 41.7109H27.125C26.5425 41.7109 26.0703 41.2387 26.0703 40.6562C26.0703 40.0738 26.5425 39.6016 27.125 39.6016H28.8125C29.395 39.6016 29.8672 40.0738 29.8672 40.6562C29.8672 41.2387 29.395 41.7109 28.8125 41.7109ZM32.75 37.2109H27.125C26.5425 37.2109 26.0703 36.7387 26.0703 36.1562C26.0703 35.5738 26.5425 35.1016 27.125 35.1016H32.75C33.3325 35.1016 33.8047 35.5738 33.8047 36.1562C33.8047 36.7387 33.3325 37.2109 32.75 37.2109ZM32.75 32.7109H27.125C26.5425 32.7109 26.0703 32.2387 26.0703 31.6562C26.0703 31.0738 26.5425 30.6016 27.125 30.6016H32.75C33.3325 30.6016 33.8047 31.0738 33.8047 31.6562C33.8047 32.2387 33.3325 32.7109 32.75 32.7109ZM32.75 28.2109H27.125C26.5425 28.2109 26.0703 27.7387 26.0703 27.1562C26.0703 26.5738 26.5425 26.1016 27.125 26.1016H32.75C33.3325 26.1016 33.8047 26.5738 33.8047 27.1562C33.8047 27.7387 33.3325 28.2109 32.75 28.2109ZM38.9375 41.7109H37.25C36.6675 41.7109 36.1953 41.2387 36.1953 40.6562C36.1953 40.0738 36.6675 39.6016 37.25 39.6016H38.9375C39.52 39.6016 39.9922 40.0738 39.9922 40.6562C39.9922 41.2387 39.52 41.7109 38.9375 41.7109ZM42.3125 37.7734C38.9395 37.7734 36.1953 35.0293 36.1953 31.6562C36.1953 28.2832 38.9395 25.5391 42.3125 25.5391C45.6855 25.5391 48.4297 28.2832 48.4297 31.6562C48.4297 35.0293 45.6855 37.7734 42.3125 37.7734Z" fill="white"/>
<path d="M41.2578 31.6562V27.7903C39.5581 28.2546 38.3047 29.8113 38.3047 31.6562C38.3047 33.8661 40.1026 35.664 42.3125 35.664C44.1574 35.664 45.7142 34.4106 46.1785 32.7109H42.3125C41.73 32.7109 41.2578 32.2387 41.2578 31.6562Z" fill="white"/>
<path d="M46.25 50.8516H39.4297V48.3203H30.5703V50.8516H23.75C23.1675 50.8516 22.6953 51.3238 22.6953 51.9062C22.6953 52.4887 23.1675 52.9609 23.75 52.9609H46.25C46.8325 52.9609 47.3047 52.4887 47.3047 51.9062C47.3047 51.3238 46.8325 50.8516 46.25 50.8516Z" fill="white"/>
</svg>
