<svg width="80" height="80" viewBox="0 0 80 80" fill="none" xmlns="http://www.w3.org/2000/svg">
<circle cx="40" cy="40" r="40" fill="#E32323" fill-opacity="0.2"/>
<circle cx="40" cy="40" r="29" fill="#E32323"/>
<path d="M45.9998 44.9693C46.0126 43.0105 45.3258 41.4613 43.9559 40.3673C42.8979 39.525 41.6139 39.0856 40.3721 38.6634C37.7851 37.7792 37.0346 37.3134 37.0346 35.9186C37.0346 34.3649 38.8255 33.8121 40.3586 33.8121C41.4751 33.8121 42.7597 34.2035 43.5574 34.7836L45.139 32.022C44.0964 31.2599 42.6694 30.7401 41.2604 30.5788V28H38.3429V30.7596C35.7495 31.4029 34.1158 33.3139 34.1158 35.9186C34.1158 37.7428 34.7881 39.1895 36.1103 40.2099C37.1159 40.9889 38.3424 41.4071 39.5271 41.8121C42.0646 42.6768 43.095 43.2038 43.0833 44.9489L43.0832 44.9618C43.0832 46.4265 41.3616 46.9471 39.8867 46.9471C38.4934 46.9471 36.9783 46.2587 36.1195 45.2351L34 47.4955C35.0876 48.7924 36.6678 49.7094 38.3428 50.0688V52.7593H41.2604V50.1267C44.1422 49.6616 45.997 47.7055 45.9998 44.9693Z" fill="white"/>
</svg>
