<svg width="80" height="80" viewBox="0 0 80 80" fill="none" xmlns="http://www.w3.org/2000/svg">
<circle cx="40" cy="40" r="40" fill="#20C731" fill-opacity="0.2"/>
<circle cx="40" cy="40" r="29" fill="#20C731"/>
<path d="M36 47C34.9 47 34 47.9 34 49C34 50.1 34.9 51 36 51C37.1 51 38 50.1 38 49C38 47.9 37.1 47 36 47ZM30 31V33H32L35.6 40.6L34.2 43C34.1 43.3 34 43.7 34 44C34 45.1 34.9 46 36 46H48V44H36.4C36.3 44 36.2 43.9 36.2 43.8V43.7L37.1 42H44.5C45.3 42 45.9 41.6 46.2 41L49.8 34.5C50 34.3 50 34.2 50 34C50 33.4 49.6 33 49 33H34.2L33.3 31H30ZM46 47C44.9 47 44 47.9 44 49C44 50.1 44.9 51 46 51C47.1 51 48 50.1 48 49C48 47.9 47.1 47 46 47Z" fill="white"/>
</svg>
