<svg width="80" height="80" viewBox="0 0 80 80" fill="none" xmlns="http://www.w3.org/2000/svg">
<circle cx="40" cy="40" r="40" fill="#1A5BC5" fill-opacity="0.2"/>
<circle cx="40" cy="40" r="29" fill="#1A5BC5"/>
<path d="M30.9941 36.4246V49.2215C30.9941 49.6594 31.341 50 31.734 50H48.2427C48.6589 50 48.9826 49.6351 48.9826 49.2215V36.4246H30.9941ZM43.734 41.339C43.734 41.7769 43.3872 42.1175 42.9941 42.1175H36.9826C36.5664 42.1175 36.2427 41.7525 36.2427 41.339V39.7576C36.2427 39.3197 36.5895 38.9791 36.9826 38.9791H42.9941C43.4103 38.9791 43.734 39.344 43.734 39.7576V41.339Z" fill="white"/>
<path d="M49.237 31H30.7399C30.3237 31 30 31.3649 30 31.7785V36.3766H50V31.8028C49.9769 31.3649 49.6763 31 49.237 31Z" stroke="white" stroke-width="3" stroke-linecap="round" stroke-linejoin="round"/>
</svg>
