<svg width="1440" height="593" viewBox="0 0 1440 593" fill="none" xmlns="http://www.w3.org/2000/svg">
<path d="M1225.12 138.156C1180.19 171.417 1129.23 201.792 1068.34 218.553C985.884 241.257 877.571 234.807 814.067 183.972C740.944 125.44 699.982 68.4304 579.333 56.6889C494.261 48.4077 391.969 68.8266 343.032 118.688C313.987 148.273 297.228 183.251 272.83 214.999C214.31 291.128 119.841 306.193 11.6208 260.281C-40.0601 238.358 -98.5461 213.056 -154.458 224.326C-227.77 239.096 -258.078 310.369 -334.015 317.793C-375.502 321.851 -415.938 304.923 -455.029 292.26C-548.138 262.084 -589.574 318.594 -674.716 308.038C-696.076 305.397 -715.176 296.295 -735.996 291.657C-757.5 286.873 -800.115 289.259 -793.47 311.475" stroke="#3B27EA" stroke-opacity="0.1" stroke-width="0.910604" stroke-miterlimit="10" stroke-linecap="round" stroke-linejoin="round"/>
<path d="M1220.48 155.891C1175.81 188.995 1123.87 217.508 1062.81 232.306C1019.04 242.972 968.578 245.513 921.647 238.072C880.22 231.48 841.401 217.202 811.606 193.939C756.877 151.168 718.976 108.85 653.916 84.695C632.335 76.6674 607.685 70.6909 578.543 67.235C494.366 57.2583 393.885 74.4294 342.437 121.682C311.653 149.974 292.968 184.309 267.84 215.981C254.96 232.261 240.619 245.975 224.914 257.039C168.771 296.451 96.5803 298.758 9.8661 269.546C-17.595 260.296 -46.5831 247.867 -75.621 238.393C-113.349 226.128 -153.482 220.526 -191.778 228.111C-260.963 242.021 -291.227 307.73 -363.01 315.342C-402.178 319.473 -440.421 304.573 -477.385 293.308C-564.936 266.635 -605.314 318.069 -685.409 307.737C-705.552 305.128 -723.619 296.605 -743.247 292.042C-763.513 287.336 -802.998 289.049 -797.673 308.688" stroke="#3B27EA" stroke-opacity="0.1" stroke-width="0.910604" stroke-miterlimit="10" stroke-linecap="round" stroke-linejoin="round"/>
<path d="M1215.82 173.623C1171.42 206.554 1118.48 233.202 1057.25 246.034C1013.53 255.297 963.743 256.548 917.717 248.334C877.031 241.053 838.956 226.55 809.138 203.857C754.659 162.31 715.645 120.807 651.66 96.2024C630.341 87.9763 606.115 81.7175 577.754 77.7235C494.497 66.0191 395.731 79.9651 341.86 124.61C309.29 151.607 288.747 185.284 262.864 216.879C249.809 232.926 235.489 246.715 219.957 258.052C164.895 298.007 95.1961 302.394 8.12222 278.714C-24.8661 269.75 -58.8142 254.925 -92.8076 243.518C-136.553 228.847 -184.303 222.929 -229.109 231.807C-294.255 244.716 -324.37 305.014 -392.022 312.794C-428.848 316.998 -464.919 304.109 -499.756 294.254C-581.748 271.064 -621.094 317.436 -696.118 307.311C-715.045 304.747 -732.076 296.771 -750.513 292.299C-769.563 287.654 -805.895 288.708 -801.869 305.786" stroke="#3B27EA" stroke-opacity="0.1" stroke-width="0.910604" stroke-miterlimit="10" stroke-linecap="round" stroke-linejoin="round"/>
<path d="M1211.17 191.338C1167.04 224.109 1113.07 248.804 1051.71 259.747C1008 267.544 958.934 267.567 913.788 258.596C873.843 250.626 836.534 235.915 806.672 213.79C752.442 173.467 712.315 132.778 649.406 107.723C628.347 99.2988 604.524 92.7421 576.988 88.2415C494.629 74.7792 397.556 85.515 341.284 127.57C306.904 153.269 284.526 186.306 257.865 217.823C244.613 233.636 230.381 247.516 214.976 259.126C161.131 299.703 92.8774 307.011 6.37672 287.956C-32.3967 279.403 -71.0706 262.071 -109.972 248.704C-159.735 231.642 -215.059 225.47 -266.394 235.565C-327.413 247.581 -357.49 302.361 -421.011 310.295C-455.519 314.57 -489.373 303.692 -522.106 295.247C-598.49 275.527 -636.83 316.851 -706.828 306.946C-724.516 304.429 -740.536 297.015 -757.78 292.603C-775.615 288.033 -808.794 288.414 -806.09 302.916" stroke="#3B27EA" stroke-opacity="0.1" stroke-width="0.910604" stroke-miterlimit="10" stroke-linecap="round" stroke-linejoin="round"/>
<path d="M1206.53 209.065C1162.66 241.679 1107.71 264.481 1046.17 273.474C1002.52 279.854 954.125 278.602 909.883 268.874C870.678 260.216 834.114 245.28 804.229 223.724C750.226 184.623 709.009 144.763 647.152 119.242C626.354 110.619 602.935 103.75 576.223 98.7428C494.764 83.4929 399.336 91.0328 340.709 130.515C304.497 154.903 280.193 187.267 252.89 218.756C239.418 234.305 225.275 248.276 210.02 260.174C157.278 301.311 90.0958 312.288 4.63299 297.156C-40.095 289.232 -83.3014 269.162 -127.158 253.847C-182.938 234.395 -245.859 227.967 -303.725 239.294C-360.64 250.432 -390.656 299.682 -450.023 307.786C-482.19 312.133 -513.848 303.251 -544.454 296.216C-615.232 279.949 -652.564 316.229 -717.515 306.558C-733.987 304.087 -748.972 297.235 -765.024 292.898C-781.644 288.405 -811.671 288.127 -810.288 300.053" stroke="#3B27EA" stroke-opacity="0.1" stroke-width="0.910604" stroke-miterlimit="10" stroke-linecap="round" stroke-linejoin="round"/>
<path d="M1201.89 226.787C1158.3 259.243 1102.35 280.169 1040.66 287.198C997.065 292.175 949.317 289.633 905.979 279.148C867.514 269.802 831.717 254.657 801.786 233.654C748.033 195.776 705.703 156.73 644.922 130.759C624.362 121.936 601.37 114.74 575.459 109.241C494.901 92.1591 401.095 96.5327 340.157 133.459C302.091 156.52 275.996 188.26 247.938 219.673C234.269 234.989 220.192 249.036 205.087 261.207C153.426 302.903 87.1341 318.048 2.9131 306.339C-47.8938 299.277 -95.5319 276.249 -144.297 258.974C-206.117 237.116 -276.589 230.449 -341.007 242.992C-393.797 253.268 -423.773 296.959 -478.988 305.233C-508.835 309.651 -538.276 302.78 -566.779 297.153C-631.902 284.326 -668.274 315.59 -728.178 306.124C-743.432 303.684 -757.406 297.394 -772.266 293.147C-787.671 288.729 -814.546 287.779 -814.461 297.131" stroke="#3B27EA" stroke-opacity="0.1" stroke-width="0.910604" stroke-miterlimit="10" stroke-linecap="round" stroke-linejoin="round"/>
<path d="M1197.23 244.491C1153.92 276.79 1096.98 295.839 1035.1 300.919C991.561 304.494 944.486 300.663 902.051 289.421C864.327 279.372 829.274 264.017 799.297 243.582C745.794 206.927 702.352 168.694 642.646 142.273C622.347 133.252 599.781 125.714 574.671 119.752C495.038 100.81 402.783 102.03 339.558 136.418C299.615 158.151 271.73 189.268 242.939 220.619C229.096 235.688 215.039 249.809 200.105 262.284C149.527 304.523 84.4775 312.754 1.16794 315.565C-55.998 317.493 -107.764 283.367 -161.484 264.144C-229.321 239.897 -307.368 232.99 -378.315 246.734C-426.98 256.164 -456.893 294.297 -507.978 302.74C-535.484 307.231 -562.706 302.34 -589.129 298.151C-648.574 288.733 -684.033 315.01 -738.89 305.765C-752.928 303.371 -765.867 297.643 -779.534 293.456C-793.724 289.1 -817.423 287.492 -818.684 294.283" stroke="#3B27EA" stroke-opacity="0.1" stroke-width="0.910604" stroke-miterlimit="10" stroke-linecap="round" stroke-linejoin="round"/>
<path d="M1192.59 262.21C1149.54 294.335 1091.62 311.538 1029.56 314.64C986.081 316.812 939.678 311.693 898.148 299.68C861.163 288.942 826.877 273.379 796.856 253.497C743.602 218.064 699.047 180.643 640.416 153.773C620.378 144.553 598.24 136.674 573.93 130.235C495.225 109.388 404.475 107.469 339.006 139.349C297.165 159.725 267.556 190.265 237.987 221.524C223.97 236.361 209.957 250.542 195.172 263.304C145.653 306.071 80.9606 320.885 -0.55163 324.733C-63.4133 327.715 -119.994 290.439 -178.646 269.257C-252.5 242.62 -338.122 235.488 -415.621 250.417C-460.137 259.001 -490.034 291.576 -536.965 300.174C-562.153 304.737 -587.109 301.812 -611.453 299.076C-665.173 293.039 -699.744 314.36 -749.552 305.335C-762.351 302.988 -774.279 297.821 -786.754 293.709C-799.728 289.428 -820.275 287.148 -822.835 291.367" stroke="#3B27EA" stroke-opacity="0.1" stroke-width="0.910604" stroke-miterlimit="10" stroke-linecap="round" stroke-linejoin="round"/>
<path d="M1187.94 279.923C1145.16 311.891 1086.26 327.233 1024.02 328.357C980.599 329.143 934.869 322.72 894.22 309.95C857.975 298.524 824.434 282.737 794.389 263.423C741.386 229.211 695.717 192.619 638.14 165.282C618.362 155.865 596.652 147.628 573.119 140.742C495.387 117.962 406.097 112.903 338.383 142.306C294.62 161.323 263.379 191.321 232.964 222.47C218.818 237.092 204.735 251.298 190.191 264.367C141.595 307.612 77.8105 329.593 -2.32015 333.955C-70.9574 337.69 -132.25 297.553 -195.833 274.425C-275.704 245.385 -368.879 238.059 -452.929 254.173C-493.321 261.91 -523.178 288.915 -565.956 297.698C-588.802 302.333 -611.516 301.359 -633.804 300.088C-681.773 297.359 -715.481 313.798 -760.242 304.978C-771.825 302.676 -782.717 298.057 -794.001 294.034C-805.737 289.831 -823.154 286.877 -827.036 288.537" stroke="#3B27EA" stroke-opacity="0.1" stroke-width="0.910604" stroke-miterlimit="10" stroke-linecap="round" stroke-linejoin="round"/>
<path d="M1183.31 297.635C1140.78 329.449 1080.92 343.024 1018.49 342.08C975.121 341.524 930.065 333.754 890.32 320.226C854.816 308.111 822.042 292.098 791.952 273.349C739.175 240.355 692.416 204.572 635.914 176.797C616.397 167.18 595.116 158.572 572.382 151.237C495.649 126.479 407.748 118.292 337.857 145.255C292.15 162.886 259.207 192.328 228.037 223.42C213.693 237.811 199.675 252.094 185.281 265.452C137.766 309.247 75.15 338.753 -3.99578 343.197C-78.5117 347.383 -144.436 304.682 -212.951 279.607C-298.84 248.174 -399.568 240.654 -490.191 257.925C-526.436 264.833 -556.254 286.271 -594.901 295.209C-615.429 299.917 -635.875 300.85 -656.109 301.089C-698.325 301.592 -731.174 313.227 -770.91 304.626C-781.276 302.355 -791.134 298.311 -801.225 294.349C-811.746 290.221 -826.011 286.594 -831.191 285.682" stroke="#3B27EA" stroke-opacity="0.1" stroke-width="0.910604" stroke-miterlimit="10" stroke-linecap="round" stroke-linejoin="round"/>
<path d="M1178.65 315.361C1136.4 347.023 1075.54 358.724 1012.93 355.817C969.622 353.86 925.239 344.801 886.374 330.514C851.61 317.711 819.58 301.486 789.468 283.289C736.941 251.512 689.07 216.537 633.642 188.31C614.386 178.493 593.557 169.513 571.599 161.73C495.912 134.95 409.355 123.648 337.262 148.2C289.635 164.416 254.966 193.346 223.041 224.351C208.523 238.496 194.525 252.856 180.303 266.505C133.869 310.849 73.222 350.852 -5.76191 352.406C-86.6317 353.994 -156.69 311.794 -230.137 284.755C-322.065 250.93 -430.239 243.369 -527.498 261.645C-559.597 267.754 -589.397 283.594 -623.891 292.704C-642.078 297.485 -660.278 300.279 -678.46 302.074C-714.963 305.688 -746.935 312.638 -781.601 304.257C-790.727 302.033 -799.573 298.535 -808.473 294.662C-817.778 290.594 -828.891 286.31 -835.393 282.84" stroke="#3B27EA" stroke-opacity="0.1" stroke-width="0.910604" stroke-miterlimit="10" stroke-linecap="round" stroke-linejoin="round"/>
<path d="M1174.02 333.091C1103.1 386.297 975.498 377.707 882.475 340.808C789.452 303.91 717.142 245.079 631.395 199.824C545.648 154.568 432.13 122.677 336.69 151.161C264.814 172.602 220.701 222.681 175.324 267.59C129.97 312.5 71.0169 357.839 -7.52909 361.65C-94.0891 365.861 -168.967 318.924 -247.346 289.936C-345.292 253.704 -461.041 245.932 -564.853 265.396C-651.157 281.577 -754.538 345.881 -839.642 280" stroke="#3B27EA" stroke-opacity="0.1" stroke-width="0.910604" stroke-miterlimit="10" stroke-linecap="round" stroke-linejoin="round"/>
<path d="M1170.88 343.549C1091.58 399.451 953.815 389.986 854.294 348.345C765.443 311.165 695.211 254.386 611.425 211.247C525.14 166.806 412.314 140.024 319.194 170.3C248.441 193.536 203.055 242.146 154.033 281.141C105.508 319.752 48.1478 357.493 -27.8577 357.575C-111.172 357.666 -184.597 311.737 -262.349 284.334C-357.982 250.631 -469.506 245.257 -569.848 264.754C-653.838 281.134 -765.18 347.429 -844.595 278.378" stroke="#3B27EA" stroke-opacity="0.1" stroke-width="0.910604" stroke-miterlimit="10" stroke-linecap="round" stroke-linejoin="round"/>
<path d="M1167.77 354.007C1080.09 412.587 932.129 402.366 826.138 355.883C741.264 318.655 673.234 263.737 591.456 222.656C504.586 179.041 392.302 157.12 301.699 189.419C231.916 214.294 185.691 261.482 132.742 294.69C81.302 326.94 25.3465 357.169 -48.1871 353.508C-128.235 349.527 -200.226 304.532 -277.353 278.741C-370.65 247.538 -477.973 244.59 -574.82 264.105C-656.473 280.67 -775.799 348.952 -849.527 276.765" stroke="#3B27EA" stroke-opacity="0.1" stroke-width="0.910604" stroke-miterlimit="10" stroke-linecap="round" stroke-linejoin="round"/>
<path d="M1164.65 364.503C1068.58 425.777 910.351 414.916 797.987 363.452C716.97 326.341 651.262 273.096 571.493 234.078C484.016 191.279 372.427 174.384 284.185 208.559C215.458 235.172 168.653 280.813 111.406 308.276C57.4174 334.175 2.52007 356.937 -68.5639 349.503C-145.3 341.469 -215.879 297.366 -292.405 273.196C-383.32 244.471 -486.488 243.962 -579.866 263.501C-659.206 280.271 -786.495 350.56 -854.556 275.205" stroke="#3B27EA" stroke-opacity="0.1" stroke-width="0.910604" stroke-miterlimit="10" stroke-linecap="round" stroke-linejoin="round"/>
<path d="M1161.52 375.002C1057.08 438.968 888.456 427.612 769.816 371.037C692.535 334.189 629.223 282.515 551.534 245.502C463.426 203.548 352.577 191.664 266.698 227.685C199.027 256.066 152.029 300.189 90.1203 321.864C33.9917 341.519 -20.2355 356.74 -88.8911 345.489C-162.319 333.462 -231.437 290.178 -307.431 267.641C-395.961 241.365 -494.977 243.324 -584.885 262.887C-661.911 279.847 -797.163 352.143 -859.536 273.62" stroke="#3B27EA" stroke-opacity="0.1" stroke-width="0.910604" stroke-miterlimit="10" stroke-linecap="round" stroke-linejoin="round"/>
<path d="M1158.4 385.499C1045.6 452.159 866.439 440.422 741.666 378.622C668.001 342.136 607.204 291.947 531.572 256.939C442.808 215.857 332.724 208.985 249.208 246.822C182.615 276.987 135.787 319.74 68.8315 335.451C10.8779 349.039 -42.9961 356.604 -109.245 341.491C-179.342 325.502 -247.02 282.991 -322.459 262.102C-408.582 238.246 -503.469 242.701 -589.908 262.303C-664.62 279.453 -807.836 353.771 -864.52 272.081" stroke="#3B27EA" stroke-opacity="0.1" stroke-width="0.910604" stroke-miterlimit="10" stroke-linecap="round" stroke-linejoin="round"/>
<path d="M1155.27 395.994C1034.09 465.348 844.279 453.388 713.494 386.205C643.35 350.167 585.093 301.389 511.587 268.372C422.144 228.192 312.894 226.319 231.695 265.971C166.203 297.935 119.74 339.61 47.4968 349.064C-12.0631 356.862 -65.8042 356.526 -129.621 337.522C-196.391 317.632 -262.626 275.804 -337.512 256.593C-421.179 235.127 -512.049 242.001 -594.931 261.735C-667.372 278.983 -818.508 355.399 -869.504 270.542" stroke="#3B27EA" stroke-opacity="0.1" stroke-width="0.910604" stroke-miterlimit="10" stroke-linecap="round" stroke-linejoin="round"/>
<path d="M1152.17 406.493C1022.61 478.54 821.93 466.5 685.368 393.777C618.651 358.243 563.027 310.865 491.673 279.78C401.504 240.514 293.156 243.657 214.254 285.078C149.883 318.872 103.797 359.768 26.2562 362.623C-34.8973 364.886 -88.5435 356.454 -149.904 333.501C-213.393 309.753 -278.089 268.522 -352.47 251.031C-433.68 231.926 -520.47 241.354 -599.883 261.113C-670.011 278.566 -829.109 356.99 -874.44 268.965" stroke="#3B27EA" stroke-opacity="0.1" stroke-width="0.910604" stroke-miterlimit="10" stroke-linecap="round" stroke-linejoin="round"/>
<path d="M1149.05 417.006C1011.1 491.747 799.319 479.795 657.195 401.378C593.81 366.418 540.89 320.381 471.688 291.228C380.768 252.92 273.37 261.035 196.741 304.225C133.515 339.85 87.5948 375.455 4.94429 376.223C-57.9346 376.811 -111.402 356.453 -170.259 329.524C-230.515 301.945 -293.624 261.268 -367.5 245.512C-446.229 228.723 -528.898 240.856 -604.906 260.533C-672.655 278.269 -839.782 358.608 -879.425 267.431" stroke="#3B27EA" stroke-opacity="0.1" stroke-width="0.910604" stroke-miterlimit="10" stroke-linecap="round" stroke-linejoin="round"/>
<path d="M1145.92 427.461C999.595 504.927 776.472 493.236 629.045 408.927C568.946 374.558 518.754 329.849 451.728 302.59C360.033 265.272 253.63 278.353 179.251 323.299C117.213 360.787 71.1785 400.951 -16.3493 389.795C-81.195 381.537 -134.334 356.441 -190.595 325.499C-247.664 294.109 -309.114 253.886 -382.509 239.905C-458.756 225.384 -537.372 240.166 -609.89 259.878C-675.326 277.827 -850.42 360.208 -884.372 265.815" stroke="#3B27EA" stroke-opacity="0.1" stroke-width="0.910604" stroke-miterlimit="10" stroke-linecap="round" stroke-linejoin="round"/>
<path d="M1142.8 437.917C988.088 518.122 753.317 506.86 600.871 416.474C543.987 382.74 496.569 339.347 431.767 313.94C339.247 277.672 234.068 295.759 161.758 342.38C101.02 381.824 54.4192 421.756 -37.6676 403.353C-104.743 389.95 -157.337 356.407 -210.977 321.436C-264.952 286.244 -324.649 246.433 -397.589 234.273C-471.329 221.992 -545.917 239.454 -614.967 259.214C-678.091 277.361 -861.128 361.785 -889.412 264.205" stroke="#3B27EA" stroke-opacity="0.1" stroke-width="0.910604" stroke-miterlimit="10" stroke-linecap="round" stroke-linejoin="round"/>
<path d="M1139.68 448.375C976.605 531.306 729.787 520.696 572.721 424.009C518.96 390.922 474.406 348.864 411.806 325.297C318.415 290.122 214.26 313.017 144.266 361.455C84.6493 402.715 37.3609 442.587 -58.9623 416.916C-128.498 398.372 -180.386 356.383 -231.313 317.385C-282.24 278.388 -340.158 238.918 -412.6 228.655C-483.854 218.556 -554.393 238.759 -619.974 258.552C-680.786 276.911 -871.79 363.375 -894.407 262.593" stroke="#3B27EA" stroke-opacity="0.1" stroke-width="0.910604" stroke-miterlimit="10" stroke-linecap="round" stroke-linejoin="round"/>
<path d="M1170.23 434.642C1076.04 481.871 950.491 500.222 834.617 485.283C746.431 473.907 661.201 447.867 591.918 413.279C575.267 404.966 559.419 396.132 543.864 387.443C507.944 367.362 473.997 347.356 431.459 335.294C418.756 331.697 405.878 329.033 392.823 327.334C312.138 316.896 225.844 340.291 162.309 378.405C145.828 388.232 130.047 397.757 114.154 406.099C69.3365 429.65 23.1613 443.509 -47.3249 424.024C-95.6904 410.549 -136.232 386.503 -173.893 359.97C-190.857 348.034 -207.227 335.583 -223.491 323.36C-275.628 284.164 -333.802 244.217 -405.199 230.816C-424.909 227.165 -444.57 225.724 -464.107 225.78C-496.356 225.895 -528.268 230.232 -559.991 236.725C-577.717 240.341 -595.206 244.922 -612.343 249.889C-638.409 257.445 -683.024 276.497 -728.482 290.234C-797.925 311.232 -872.452 321.443 -891.402 263.869" stroke="#3B27EA" stroke-opacity="0.1" stroke-width="0.92317" stroke-miterlimit="10" stroke-linecap="round" stroke-linejoin="round"/>
<path d="M1200.76 420.896C1105.73 467.884 975.365 487.717 859.292 470.296C769.353 456.796 682.621 430.378 611.07 402.502C594.031 395.863 577.78 389.045 561.909 382.51C525.577 367.536 492.518 352.91 451.067 345.248C438.726 342.964 426.193 341.418 413.441 340.774C334.153 336.777 247.325 360.888 180.308 395.323C162.897 404.262 145.968 412.651 129.106 419.924C81.9589 440.262 33.9242 451.211 -35.7324 431.105C-84.5329 417.02 -126.032 392.781 -164.722 366.141C-182.144 354.146 -199.017 341.635 -215.736 329.309C-269.061 289.929 -327.463 249.358 -397.888 232.938C-417.219 228.436 -436.542 226.023 -455.733 224.884C-487.579 222.999 -519.165 224.929 -551.182 229.588C-569.351 232.232 -587.303 236.316 -604.828 241.207C-632.765 249.003 -677.048 268.986 -721.257 283.675C-789.666 306.405 -864.177 319.671 -888.489 265.149" stroke="#3B27EA" stroke-opacity="0.1" stroke-width="0.935736" stroke-miterlimit="10" stroke-linecap="round" stroke-linejoin="round"/>
<path d="M1231.31 407.216C1135.43 453.986 1000.25 475.267 883.976 455.42C792.285 439.765 704.212 412.965 630.23 391.828C612.871 386.863 596.217 382.073 579.984 377.687C543.448 367.807 511.093 358.548 470.707 355.283C458.749 354.31 446.54 353.881 434.09 354.278C356.151 356.748 268.701 381.482 198.334 412.334C179.97 420.388 161.959 427.648 144.083 433.855C94.6736 451.007 44.737 458.947 -24.1167 438.301C-73.3499 423.542 -115.809 399.174 -155.528 372.403C-173.43 360.344 -190.761 347.785 -207.957 335.32C-262.469 295.726 -321.102 254.619 -390.552 235.086C-409.505 229.762 -428.49 226.347 -447.31 224.012C-478.754 220.114 -510.058 219.608 -542.302 222.469C-560.961 224.124 -579.307 227.717 -597.243 232.548C-627.028 240.59 -671.005 261.527 -713.987 277.145C-781.364 301.634 -855.859 317.932 -885.533 266.44" stroke="#3B27EA" stroke-opacity="0.1" stroke-width="0.948211" stroke-miterlimit="10" stroke-linecap="round" stroke-linejoin="round"/>
<path d="M1261.87 393.515C1165.14 440.082 1025.18 462.772 908.683 440.526C815.241 422.684 726.012 395.479 649.414 381.121C631.735 377.814 614.794 375.028 598.06 372.816C561.506 367.964 529.715 364.127 490.323 365.287C478.749 365.628 466.862 366.33 454.717 367.754C378.101 376.752 290.008 402.034 216.313 429.32C196.996 436.473 177.904 442.635 159.014 447.76C107.387 461.743 55.5035 466.642 -12.5479 445.472C-62.1908 430.038 -105.633 405.54 -146.381 378.636C-164.741 366.528 -182.574 353.888 -200.225 341.314C-255.923 301.505 -314.811 259.875 -383.263 237.227C-401.839 231.081 -420.484 226.649 -438.958 223.133C-470.022 217.204 -501.045 214.261 -533.494 215.354C-552.641 216.007 -571.404 219.122 -589.729 223.895C-621.384 232.152 -665.034 254.09 -706.79 270.638C-773.113 296.903 -847.638 316.233 -882.649 267.77" stroke="#3B27EA" stroke-opacity="0.1" stroke-width="0.960777" stroke-miterlimit="10" stroke-linecap="round" stroke-linejoin="round"/>
<path d="M1292.42 379.819C1194.84 426.156 1050.1 450.224 933.391 425.623C838.222 405.565 747.91 377.852 668.621 370.407C650.671 368.717 633.443 367.92 616.16 367.941C579.755 367.975 548.361 369.676 509.986 375.278C498.797 376.918 487.208 378.781 475.412 381.233C400.094 396.821 311.384 422.578 234.384 446.298C214.092 452.55 193.963 457.63 174.037 461.642C120.237 472.501 66.3865 474.298 -0.886215 452.616C-50.9383 436.493 -95.3634 411.864 -137.142 384.857C-155.982 372.684 -174.295 359.994 -192.401 347.282C-249.309 307.271 -308.429 265.117 -375.858 239.325C-394.056 232.356 -412.385 226.905 -430.489 222.194C-461.15 214.219 -491.913 208.808 -524.568 208.177C-544.203 207.797 -563.384 210.449 -582.075 215.18C-615.601 223.651 -658.879 246.624 -699.429 264.057C-764.676 292.129 -839.23 314.448 -879.602 269.014" stroke="#3B27EA" stroke-opacity="0.1" stroke-width="0.973342" stroke-miterlimit="10" stroke-linecap="round" stroke-linejoin="round"/>
<path d="M1322.97 366.114C1224.54 412.235 1075.03 437.653 958.078 410.711C861.161 388.389 769.838 360.097 687.783 359.699C669.585 359.612 652.05 360.744 634.237 363.075C597.964 367.818 566.987 375.193 529.626 385.299C518.822 388.222 507.553 391.277 496.061 394.727C422.085 416.968 332.691 443.124 252.408 463.307C231.141 468.658 209.975 472.67 189.013 475.569C133.038 483.334 77.2224 481.981 10.7278 459.803C-39.7099 442.976 -85.1421 418.246 -127.95 391.106C-147.246 378.869 -166.041 366.129 -184.624 353.292C-242.718 313.065 -302.117 270.416 -368.524 241.463C-386.368 233.685 -404.332 227.187 -422.092 221.308C-452.371 211.286 -482.873 203.376 -515.713 201.037C-535.857 199.607 -555.458 201.811 -574.514 206.5C-609.911 215.187 -652.84 239.193 -692.186 257.525C-756.357 287.421 -830.962 312.73 -876.673 270.311" stroke="#3B27EA" stroke-opacity="0.1" stroke-width="0.985908" stroke-miterlimit="10" stroke-linecap="round" stroke-linejoin="round"/>
<path d="M1353.54 352.393C1254.27 398.313 1100 425.022 982.81 395.798C884.19 371.214 791.747 342.188 706.991 348.976C688.499 350.461 670.635 353.493 652.336 358.196C616.04 367.538 585.59 380.669 549.288 395.298C538.846 399.504 527.92 403.738 516.732 408.215C444.141 437.144 354.02 463.651 270.454 480.31C248.213 484.746 226.031 487.705 204.011 489.49C145.883 494.204 88.1033 489.657 22.3639 466.981C-28.4824 449.45 -74.876 424.619 -118.735 397.345C-138.513 385.059 -157.786 372.238 -176.824 359.277C-236.105 318.835 -295.784 275.705 -361.167 243.59C-378.634 235.004 -396.258 227.458 -413.672 220.412C-443.523 208.314 -473.787 197.902 -506.859 193.897C-527.489 191.404 -547.509 193.175 -566.955 197.819C-604.244 206.706 -646.756 231.763 -684.92 250.981C-747.971 282.717 -822.649 310.985 -873.745 271.612" stroke="#3B27EA" stroke-opacity="0.1" stroke-width="0.998474" stroke-miterlimit="10" stroke-linecap="round" stroke-linejoin="round"/>
<path d="M1384.08 338.68C1283.98 384.384 1124.99 412.37 1007.5 380.891C907.177 353.999 813.501 324.191 726.153 338.277C707.37 341.305 689.085 346.234 670.391 353.342C633.934 367.236 604.101 386.173 568.904 405.341C558.824 410.832 548.263 416.275 537.357 421.735C466.243 457.386 375.305 484.197 288.454 497.346C265.238 500.865 242.017 502.8 218.963 503.441C158.68 505.133 98.9397 497.331 33.9543 474.188C-17.2771 455.937 -64.678 431.005 -109.567 403.614C-129.802 391.263 -149.556 378.393 -169.072 365.308C-229.54 324.665 -289.543 281.038 -353.834 245.748C-370.947 236.352 -388.184 227.759 -405.251 219.53C-434.675 205.37 -464.699 192.412 -497.982 186.77C-519.097 183.183 -539.537 184.551 -559.372 189.152C-598.554 198.239 -640.65 224.376 -677.654 244.463C-739.562 278.07 -814.359 309.282 -870.794 272.928" stroke="#3B27EA" stroke-opacity="0.1" stroke-width="1.01104" stroke-miterlimit="10" stroke-linecap="round" stroke-linejoin="round"/>
<path d="M1414.66 324.965C1313.71 370.452 1150 399.702 1032.21 365.966C930.213 336.752 835.145 306.11 745.364 327.548C726.242 332.117 707.514 338.927 688.514 348.476C651.737 366.916 622.659 391.667 588.589 415.363C578.872 422.123 568.677 428.776 558.052 435.233C488.46 477.611 396.637 504.693 306.501 514.361C282.31 516.962 258.05 517.873 233.961 517.371C171.5 516.069 109.823 504.982 45.5905 481.385C-6.0029 462.416 -54.4346 437.397 -100.353 409.873C-121.067 397.457 -141.302 384.522 -161.272 371.313C-222.95 330.454 -283.234 286.361 -346.477 247.879C-363.237 237.688 -380.085 228.017 -396.831 218.634C-425.827 202.397 -455.565 186.894 -489.104 179.613C-510.68 174.933 -531.587 175.895 -551.788 180.454C-592.84 189.726 -634.521 216.96 -670.387 237.9C-731.13 273.38 -806.046 307.536 -867.842 274.217" stroke="#3B27EA" stroke-opacity="0.1" stroke-width="1.0236" stroke-miterlimit="10" stroke-linecap="round" stroke-linejoin="round"/>
<path d="M1445.21 311.23C1343.42 356.499 1175.11 386.853 1056.92 351.036C953.369 319.354 856.652 287.989 764.551 316.83C745.069 322.925 725.872 331.661 706.593 343.606C669.401 366.637 641.035 397.11 608.229 425.4C598.828 433.428 589.066 441.294 578.7 448.763C510.675 497.886 417.948 525.134 324.523 531.409C299.337 533.047 274.058 532.994 248.958 531.333C184.272 527.05 120.753 512.605 57.2261 488.599C5.29592 468.852 -44.1915 443.79 -91.1392 416.148C-112.312 403.684 -133.049 390.683 -153.474 377.35C-216.338 336.276 -277.043 291.772 -339.122 250.056C-355.551 239.069 -371.965 228.308 -388.412 217.784C-416.91 199.427 -446.432 181.404 -480.228 172.514C-502.243 166.727 -523.639 167.267 -544.207 171.813C-587.172 181.224 -628.394 209.601 -663.1 231.41C-722.633 268.795 -797.735 305.85 -864.871 275.567" stroke="#3B27EA" stroke-opacity="0.1" stroke-width="1.03617" stroke-miterlimit="10" stroke-linecap="round" stroke-linejoin="round"/>
<path d="M1475.76 297.507C1373.1 342.557 1200.05 374.277 1081.61 336.1C954.166 295.028 836.944 256.328 724.649 338.717C676.245 374.24 644.805 424.014 599.325 462.262C514.978 533.195 386.634 558.541 263.909 545.246C141.185 531.952 23.5292 483.433 -81.9474 422.371C-187.447 361.309 -282.625 287.604 -379.99 216.851C-408.06 196.445 -437.248 175.817 -471.37 165.33C-541.84 143.659 -606.531 191.585 -655.855 224.818C-714.155 264.108 -789.444 304.075 -861.941 276.829" stroke="#3B27EA" stroke-opacity="0.1" stroke-width="1.04874" stroke-miterlimit="10" stroke-linecap="round" stroke-linejoin="round"/>
</svg>
